<svg width="24" height="24" viewBox="0 0 24 24" fill="none" xmlns="http://www.w3.org/2000/svg">
<path d="M11.001 10H13.001V15H11.001V10ZM11 16H13V18H11V16Z" fill="#E35D4E"/>
<path d="M13.768 4.20067C13.42 3.54567 12.742 3.13867 12 3.13867C11.258 3.13867 10.58 3.54567 10.232 4.20167L2.89401 18.0647C2.73118 18.3691 2.65052 18.7107 2.65999 19.0558C2.66946 19.4009 2.76873 19.7376 2.94801 20.0327C3.12471 20.3291 3.37565 20.5742 3.67606 20.744C3.97647 20.9137 4.31596 21.0022 4.66101 21.0007H19.339C20.047 21.0007 20.688 20.6387 21.053 20.0327C21.232 19.7375 21.3311 19.4009 21.3406 19.0558C21.35 18.7108 21.2696 18.3692 21.107 18.0647L13.768 4.20067ZM4.66101 19.0007L12 5.13767L19.344 19.0007H4.66101Z" fill="#E35D4E"/>
</svg>
