<svg width="24" height="24" viewBox="0 0 24 24" fill="none" xmlns="http://www.w3.org/2000/svg">
<g clip-path="url(#clip0_2019_941)">
<path d="M12 20.0001C10.1435 20.0001 8.36301 19.2626 7.05025 17.9499C5.7375 16.6371 5 14.8566 5 13.0001C5 11.1436 5.7375 9.36311 7.05025 8.05036C8.36301 6.73761 10.1435 6.00011 12 6.00011C13.8565 6.00011 15.637 6.73761 16.9497 8.05036C18.2625 9.36311 19 11.1436 19 13.0001C19 14.8566 18.2625 16.6371 16.9497 17.9499C15.637 19.2626 13.8565 20.0001 12 20.0001ZM12 4.00011C9.61305 4.00011 7.32387 4.94832 5.63604 6.63615C3.94821 8.32397 3 10.6132 3 13.0001C3 15.3871 3.94821 17.6762 5.63604 19.3641C7.32387 21.0519 9.61305 22.0001 12 22.0001C14.3869 22.0001 16.6761 21.0519 18.364 19.3641C20.0518 17.6762 21 15.3871 21 13.0001C21 10.6132 20.0518 8.32397 18.364 6.63615C16.6761 4.94832 14.3869 4.00011 12 4.00011ZM12.5 8.00011H11V14.0001L15.75 16.8501L16.5 15.6201L12.5 13.2501V8.00011ZM7.88 3.39011L6.6 1.86011L2 5.71011L3.29 7.24011L7.88 3.39011ZM22 5.72011L17.4 1.86011L16.11 3.39011L20.71 7.25011L22 5.72011Z" fill="#7A7E87"/>
</g>
<defs>
<clipPath id="clip0_2019_941">
<rect width="24" height="24" fill="white"/>
</clipPath>
</defs>
</svg>
