<svg width="25" height="25" viewBox="0 0 25 25" fill="none" xmlns="http://www.w3.org/2000/svg">
<g clip-path="url(#clip0_1735_12231)">
<path d="M11.6072 19.6428H13.3929M17.8572 8.92854V5.35711M9.8215 8.92854V2.67854H4.46436V8.92854M21.4286 3.12497C21.4286 3.41809 21.3709 3.70835 21.2587 3.97917C21.1466 4.24999 20.9821 4.49605 20.7749 4.70333C20.5676 4.9106 20.3215 5.07502 20.0507 5.1872C19.7799 5.29937 19.4896 5.35711 19.1965 5.35711H16.5179C15.9259 5.35711 15.3582 5.12194 14.9396 4.70333C14.521 4.28472 14.2858 3.71697 14.2858 3.12497C14.2858 2.53296 14.521 1.96521 14.9396 1.5466C15.3582 1.12799 15.9259 0.892822 16.5179 0.892822H19.1965C19.4896 0.892822 19.7799 0.950558 20.0507 1.06273C20.3215 1.17491 20.5676 1.33933 20.7749 1.5466C20.9821 1.75388 21.1466 1.99994 21.2587 2.27076C21.3709 2.54158 21.4286 2.83184 21.4286 3.12497Z" stroke="white" stroke-width="2" stroke-linecap="round" stroke-linejoin="round"/>
<path d="M22.3216 15.1785H2.67878C1.69256 15.1785 0.893066 15.978 0.893066 16.9642V22.3213C0.893066 23.3075 1.69256 24.107 2.67878 24.107H22.3216C23.3079 24.107 24.1074 23.3075 24.1074 22.3213V16.9642C24.1074 15.978 23.3079 15.1785 22.3216 15.1785Z" stroke="white" stroke-width="2" stroke-linecap="round" stroke-linejoin="round"/>
<path d="M22.3216 15.1785V10.7142C22.3216 10.2406 22.1334 9.78638 21.7985 9.45149C21.4637 9.1166 21.0095 8.92847 20.5359 8.92847H4.46443C3.99082 8.92847 3.53662 9.1166 3.20173 9.45149C2.86685 9.78638 2.67871 10.2406 2.67871 10.7142V15.1785" stroke="white" stroke-width="2" stroke-linecap="round" stroke-linejoin="round"/>
</g>
<defs>
<clipPath id="clip0_1735_12231">
<rect width="25" height="25" fill="white"/>
</clipPath>
</defs>
</svg>
