<svg width="24" height="24" viewBox="0 0 24 24" fill="none" xmlns="http://www.w3.org/2000/svg">
<path fill-rule="evenodd" clip-rule="evenodd" d="M6.46606 10.947C6.46606 8.47225 8.47225 6.46606 10.947 6.46606C13.4217 6.46606 15.4279 8.47225 15.4279 10.947C15.4279 13.4217 13.4217 15.4279 10.947 15.4279C8.47225 15.4279 6.46606 13.4217 6.46606 10.947ZM10.947 4.46606C7.36768 4.46606 4.46606 7.36768 4.46606 10.947C4.46606 14.5263 7.36768 17.4279 10.947 17.4279C12.3758 17.4279 13.6967 16.9655 14.768 16.1822L18.7104 20.1246L20.1246 18.7104L16.1822 14.768C16.9655 13.6967 17.4279 12.3758 17.4279 10.947C17.4279 7.36768 14.5263 4.46606 10.947 4.46606Z" fill="#1B1B1B"/>
</svg>
