<svg width="30" height="29" viewBox="0 0 30 29" fill="none" xmlns="http://www.w3.org/2000/svg">
<path d="M15.0001 18.7916C13.9945 18.7916 13.03 18.3921 12.319 17.6811C11.6079 16.97 11.2084 16.0056 11.2084 15C11.2084 13.9943 11.6079 13.0299 12.319 12.3188C13.03 11.6078 13.9945 11.2083 15.0001 11.2083C16.0057 11.2083 16.9701 11.6078 17.6812 12.3188C18.3923 13.0299 18.7917 13.9943 18.7917 15C18.7917 16.0056 18.3923 16.97 17.6812 17.6811C16.9701 18.3921 16.0057 18.7916 15.0001 18.7916ZM23.0492 16.0508C23.0926 15.7041 23.1251 15.3575 23.1251 15C23.1251 14.6425 23.0926 14.285 23.0492 13.9166L25.3351 12.1508C25.5409 11.9883 25.5951 11.6958 25.4651 11.4575L23.2984 7.70913C23.1684 7.47079 22.8759 7.37329 22.6376 7.47079L19.9401 8.55413C19.3767 8.13163 18.7917 7.76329 18.1092 7.49246L17.7084 4.62163C17.6864 4.49403 17.6199 4.37834 17.5208 4.29506C17.4216 4.21178 17.2962 4.16628 17.1667 4.16663H12.8334C12.5626 4.16663 12.3351 4.36163 12.2917 4.62163L11.8909 7.49246C11.2084 7.76329 10.6234 8.13163 10.0601 8.55413L7.36257 7.47079C7.12424 7.37329 6.83174 7.47079 6.70174 7.70913L4.53507 11.4575C4.39424 11.6958 4.45924 11.9883 4.66507 12.1508L6.9509 13.9166C6.90757 14.285 6.87507 14.6425 6.87507 15C6.87507 15.3575 6.90757 15.7041 6.9509 16.0508L4.66507 17.8491C4.45924 18.0116 4.39424 18.3041 4.53507 18.5425L6.70174 22.2908C6.83174 22.5291 7.12424 22.6158 7.36257 22.5291L10.0601 21.435C10.6234 21.8683 11.2084 22.2366 11.8909 22.5075L12.2917 25.3783C12.3351 25.6383 12.5626 25.8333 12.8334 25.8333H17.1667C17.4376 25.8333 17.6651 25.6383 17.7084 25.3783L18.1092 22.5075C18.7917 22.2258 19.3767 21.8683 19.9401 21.435L22.6376 22.5291C22.8759 22.6158 23.1684 22.5291 23.2984 22.2908L25.4651 18.5425C25.5951 18.3041 25.5409 18.0116 25.3351 17.8491L23.0492 16.0508Z" fill="white"/>
</svg>
