<svg width="18" height="18" viewBox="0 0 18 18" fill="none" xmlns="http://www.w3.org/2000/svg">
<path d="M9.00182 11.9167C8.22827 11.9167 7.48641 11.6095 6.93942 11.0625C6.39244 10.5155 6.08515 9.77363 6.08515 9.00008C6.08515 8.22653 6.39244 7.48467 6.93942 6.93769C7.48641 6.39071 8.22827 6.08342 9.00182 6.08342C9.77537 6.08342 10.5172 6.39071 11.0642 6.93769C11.6112 7.48467 11.9185 8.22653 11.9185 9.00008C11.9185 9.77363 11.6112 10.5155 11.0642 11.0625C10.5172 11.6095 9.77537 11.9167 9.00182 11.9167ZM15.1935 9.80842C15.2268 9.54175 15.2518 9.27508 15.2518 9.00008C15.2518 8.72508 15.2268 8.45008 15.1935 8.16675L16.9518 6.80842C17.1102 6.68342 17.1518 6.45842 17.0518 6.27508L15.3852 3.39175C15.2852 3.20842 15.0602 3.13342 14.8768 3.20842L12.8018 4.04175C12.3685 3.71675 11.9185 3.43342 11.3935 3.22508L11.0852 1.01675C11.0682 0.918597 11.0171 0.829605 10.9408 0.765542C10.8646 0.70148 10.7681 0.666482 10.6685 0.66675H7.33515C7.12682 0.66675 6.95182 0.81675 6.91849 1.01675L6.61015 3.22508C6.08515 3.43342 5.63515 3.71675 5.20182 4.04175L3.12682 3.20842C2.94349 3.13342 2.71849 3.20842 2.61849 3.39175L0.951819 6.27508C0.843486 6.45842 0.893486 6.68342 1.05182 6.80842L2.81015 8.16675C2.77682 8.45008 2.75182 8.72508 2.75182 9.00008C2.75182 9.27508 2.77682 9.54175 2.81015 9.80842L1.05182 11.1917C0.893486 11.3167 0.843486 11.5417 0.951819 11.7251L2.61849 14.6084C2.71849 14.7917 2.94349 14.8584 3.12682 14.7917L5.20182 13.9501C5.63515 14.2834 6.08515 14.5667 6.61015 14.7751L6.91849 16.9834C6.95182 17.1834 7.12682 17.3334 7.33515 17.3334H10.6685C10.8768 17.3334 11.0518 17.1834 11.0852 16.9834L11.3935 14.7751C11.9185 14.5584 12.3685 14.2834 12.8018 13.9501L14.8768 14.7917C15.0602 14.8584 15.2852 14.7917 15.3852 14.6084L17.0518 11.7251C17.1518 11.5417 17.1102 11.3167 16.9518 11.1917L15.1935 9.80842Z" fill="#7A7E87"/>
</svg>
